<?xml version="1.0" encoding="UTF-8" standalone="no"?>
<svg
   xmlns:osb="http://www.openswatchbook.org/uri/2009/osb"
   xmlns:dc="http://purl.org/dc/elements/1.1/"
   xmlns:cc="http://creativecommons.org/ns#"
   xmlns:rdf="http://www.w3.org/1999/02/22-rdf-syntax-ns#"
   xmlns:svg="http://www.w3.org/2000/svg"
   xmlns="http://www.w3.org/2000/svg"
   xmlns:xlink="http://www.w3.org/1999/xlink"
   xmlns:sodipodi="http://sodipodi.sourceforge.net/DTD/sodipodi-0.dtd"
   xmlns:inkscape="http://www.inkscape.org/namespaces/inkscape"
   version="1.1"
   id="Layer_1"
   x="0px"
   y="0px"
   width="128px"
   height="40px"
   viewBox="0 0 128 40"
   enable-background="new 0 0 128 40"
   xml:space="preserve"
   inkscape:version="0.48.1 r9760"
   sodipodi:docname="jqm_image.svg"><metadata
   id="metadata25"><rdf:RDF><cc:Work
       rdf:about=""><dc:format>image/svg+xml</dc:format><dc:type
         rdf:resource="http://purl.org/dc/dcmitype/StillImage" /><dc:title /></cc:Work></rdf:RDF></metadata><defs
   id="defs23"><linearGradient
     inkscape:collect="always"
     id="linearGradient5248"><stop
       style="stop-color:#00d800;stop-opacity:1;"
       offset="0"
       id="stop5250" /><stop
       style="stop-color:#00d800;stop-opacity:0;"
       offset="1"
       id="stop5252" /></linearGradient><linearGradient
     id="linearGradient5220"
     osb:paint="solid"><stop
       style="stop-color:#000000;stop-opacity:1;"
       offset="0"
       id="stop5222" /></linearGradient><linearGradient
     id="linearGradient5202"
     osb:paint="solid"><stop
       style="stop-color:#000000;stop-opacity:1;"
       offset="0"
       id="stop5204" /></linearGradient><linearGradient
     id="linearGradient3762"
     osb:paint="solid"><stop
       style="stop-color:#000000;stop-opacity:1;"
       offset="0"
       id="stop3764" /></linearGradient><linearGradient
     inkscape:collect="always"
     xlink:href="#linearGradient5248"
     id="linearGradient5254"
     x1="0"
     y1="20"
     x2="128"
     y2="20"
     gradientUnits="userSpaceOnUse" /></defs><sodipodi:namedview
   pagecolor="#ffffff"
   bordercolor="#666666"
   borderopacity="1"
   objecttolerance="10"
   gridtolerance="10"
   guidetolerance="10"
   inkscape:pageopacity="0"
   inkscape:pageshadow="2"
   inkscape:window-width="1920"
   inkscape:window-height="1004"
   id="namedview21"
   showgrid="false"
   inkscape:zoom="3.6015625"
   inkscape:cx="16.520608"
   inkscape:cy="23.609544"
   inkscape:window-x="0"
   inkscape:window-y="25"
   inkscape:window-maximized="1"
   inkscape:current-layer="Layer_1" />
<g
   id="g3"
   style="stroke:#000000;stroke-opacity:0">
	<rect
   fill="#FFFFFF"
   width="128"
   height="40"
   id="rect5"
   style="stroke:#000000;stroke-opacity:0" />
</g><rect
   style="fill:#bbfdff;fill-opacity:1;stroke:#999999;stroke-width:1;stroke-opacity:1"
   id="rect5228"
   width="109.731"
   height="21.320999"
   x="13.327549"
   y="10.626939" />
<rect
   fill="#627278"
   width="5"
   height="40"
   id="rect7" />

<text
   font-size="10"
   id="jqm_button_title"
   transform="translate(48.3667,23.873)"
   style="font-size:10px;font-family:OpenSans-Semibold" />



<path
   sodipodi:type="arc"
   style="fill:#fcffbb;fill-opacity:1;stroke:#000000;stroke-opacity:0"
   id="path5236"
   sodipodi:cx="104.67679"
   sodipodi:cy="10.845987"
   sodipodi:rx="3.05423"
   sodipodi:ry="3.3318872"
   d="m 107.73102,10.845987 a 3.05423,3.3318872 0 1 1 -6.10846,0 3.05423,3.3318872 0 1 1 6.10846,0 z"
   transform="translate(-0.27765727,5.5531453)" /><text
   font-size="10"
   style="font-size:10px;font-family:OpenSans-Semibold"
   id="text3004"
   x="50.587959"
   y="22.484715">Image</text>
<path
   style="fill:#00f212;fill-opacity:1;stroke:#000000;stroke-width:1px;stroke-linecap:butt;stroke-linejoin:miter;stroke-opacity:0"
   d="m 15.548809,31.38753 c 2.436948,-0.343072 1.479705,-0.08168 2.976617,-0.585641 0.283488,-0.09544 0.542977,-0.232996 0.850463,-0.286322 0.275023,-0.0477 0.575438,0.03903 0.850461,-0.0087 1.150279,-0.19949 0.550646,-0.373155 1.700924,-0.572644 0.275023,-0.04769 0.596904,0.0767 0.850462,-0.0087 0.358586,-0.120724 0.529733,-0.403645 0.850461,-0.563979 0.25356,-0.126756 0.596904,-0.159568 0.850464,-0.286323 0.481093,-0.240502 0.850461,-0.563979 1.275693,-0.845969 0.283487,-0.187993 0.566974,-0.375986 0.850461,-0.563979 0.14174,-0.09399 0.335584,-0.164006 0.425231,-0.28199 0.06338,-0.08343 -0.06338,-0.19423 0,-0.277658 0.179294,-0.235967 0.628077,-0.343901 0.850463,-0.563979 0.175811,-0.173987 0.325003,-0.362292 0.425231,-0.559647 0.04483,-0.08826 -0.100221,-0.211191 0,-0.277657 0.224117,-0.148621 0.586745,-0.168838 0.850462,-0.286322 0.207661,-0.09252 1.562482,-0.990954 1.700924,-1.127959 0.14174,-0.186549 0.283488,-0.373098 0.42523,-0.559647 0,-0.09255 -0.06338,-0.19423 0,-0.277657 0.179295,-0.235968 0.67117,-0.328011 0.850464,-0.56398 0.06338,-0.08343 -0.100233,-0.211191 0,-0.277657 0.10022,-0.06646 0.325002,0.06214 0.42523,-0.0043 0.100221,-0.06646 -0.06338,-0.194231 0,-0.277657 0.168483,-0.221741 0.681978,-0.34224 0.850461,-0.56398 0.06338,-0.08343 0,-0.185104 0,-0.277657 0.14174,-0.09399 0.335584,-0.164006 0.425232,-0.28199 0.06338,-0.08343 -0.100221,-0.211192 0,-0.277657 0.10022,-0.06646 0.29076,0.02631 0.425231,-0.0043 0.300683,-0.0685 0.586745,-0.168839 0.850463,-0.286323 0.166789,-0.0743 0.283486,-0.187993 0.42523,-0.28199 0.14174,-0.09399 0.335585,-0.164006 0.42523,-0.281989 0.06338,-0.08343 -0.10022,-0.211192 0,-0.277658 0.200457,-0.13293 0.581523,0.05261 0.850464,-0.0087 0.300683,-0.0685 0.549777,-0.217813 0.850461,-0.286322 0.134466,-0.03064 0.298452,0.03835 0.42523,-0.0043 0.179294,-0.06036 0.245939,-0.221628 0.425233,-0.28199 0.168601,-0.05676 1.188759,0.04465 1.275691,-0.013 0.100221,-0.06646 -0.10022,-0.211192 0,-0.277657 0.100221,-0.06646 0.283488,-0.0029 0.425232,-0.0043 0.14174,-0.0014 0.283488,-0.0029 0.425232,-0.0043 0.141739,-0.0014 0.298451,0.03835 0.42523,-0.0043 0.11071,-0.03727 0.518049,-0.499987 0.850462,-0.286323 0.100221,0.06442 -0.10022,0.213234 0,0.277658 0.100221,0.06442 0.298453,-0.04443 0.425231,-0.0043 0.179294,0.0567 0.245938,0.216617 0.425231,0.273325 0.126777,0.0401 0.298452,-0.04443 0.425232,-0.0043 1.769709,0.559741 -0.454588,-0.01454 0.425231,0.550982 0.10022,0.06443 0.298452,-0.04443 0.42523,-0.0043 1.76971,0.559741 -0.454586,-0.01454 0.42523,0.550982 0.100221,0.06442 0.361843,-0.08647 0.425233,-0.0043 0,1.573391 -0.283487,0.09544 0.425231,0.550982 0.212616,0.136662 -0.212617,0.696309 0,0.832971 0.10022,0.06443 0.325002,-0.06875 0.42523,-0.0043 0.200456,0.128846 -0.126776,0.391043 0,0.555315 0.08966,0.116156 0.335584,0.157168 0.425231,0.273324 0.06338,0.08214 -0.100221,0.213234 0,0.277657 0.10022,0.06442 0.325004,-0.06875 0.425231,-0.0043 0.100221,0.06442 -0.06338,0.195522 0,0.277658 1.410314,0.906504 -0.200455,-0.259736 0.425232,0.550981 0.169298,0.219367 0.681161,0.327285 0.850462,0.546651 0.06338,0.08213 -0.100233,0.213234 0,0.277657 0.10022,0.06442 0.325002,-0.06875 0.425231,-0.0043 0.10022,0.06442 -0.06338,0.195522 0,0.277657 0.283868,0.367814 0.566594,0.178836 0.850462,0.54665 0.06338,0.08214 -0.0634,0.195522 0,0.277657 0.08966,0.116158 0.335584,0.157168 0.425231,0.273325 0.06338,0.08213 -0.10022,0.213234 0,0.277658 0.100221,0.06442 0.325002,-0.06876 0.425231,-0.0043 0.141081,0.09068 -0.141082,0.464631 0,0.555314 0.10022,0.06443 0.325004,-0.06875 0.42523,-0.0043 0.100221,0.06443 -0.10022,0.213234 0,0.277657 0.100221,0.06442 0.325004,-0.06875 0.425231,-0.0043 0.200457,0.128847 -0.200455,0.426469 0,0.555315 0.100232,0.06442 0.325004,-0.06875 0.425233,-0.0043 0.200455,0.128847 -0.126778,0.391044 0,0.555314 0.179291,0.232315 0.671169,0.314336 0.850461,0.54665 0.06338,0.08213 -0.06338,0.195522 0,0.277657 0.08966,0.116158 0.283487,0.182217 0.42523,0.273326 0.14174,0.09111 0.245939,0.216616 0.425232,0.273324 0.126778,0.0401 0.298452,-0.04443 0.425231,-0.0043 0.179293,0.0567 0.245938,0.216616 0.425231,0.273324 0.168601,0.05332 1.18876,-0.06887 1.275692,-0.013 0.100233,0.06442 -0.10022,0.213234 0,0.277657 0.100233,0.06443 0.283488,-0.0029 0.425232,-0.0043 1.13395,-0.01155 2.267899,-0.02311 3.401847,-0.03466 0.1681,-0.0017 1.944547,0.03948 2.126156,-0.02166 0.179293,-0.06036 0.245939,-0.221628 0.425231,-0.28199 0.126778,-0.04268 0.29076,0.02631 0.425231,-0.0043 0.300685,-0.0685 0.549779,-0.217814 0.850462,-0.286322 0.134466,-0.03064 0.290761,0.02631 0.425231,-0.0043 0.300684,-0.06851 0.549779,-0.217815 0.850463,-0.286322 0.134465,-0.03064 0.298452,0.03835 0.425231,-0.0043 0.179294,-0.06037 0.245938,-0.221627 0.42523,-0.28199 0.226608,-0.07629 0.623855,0.06762 0.850464,-0.0087 0.179291,-0.06037 0.245936,-0.221628 0.42523,-0.281989 0.126777,-0.04268 0.298451,0.03835 0.42523,-0.0043 0.338268,-0.113883 0.512195,-0.450096 0.850463,-0.56398 0.126777,-0.04268 0.325003,0.06214 0.42523,-0.0043 0.100233,-0.06646 -0.10022,-0.211191 0,-0.277657 0.200457,-0.132932 0.596904,0.0767 0.850463,-0.0087 0.179292,-0.06036 0.245937,-0.221628 0.425231,-0.28199 0.253559,-0.08536 0.650006,0.124267 0.850461,-0.0087 0.10022,-0.06646 -0.100221,-0.211192 0,-0.277657 0.10022,-0.06646 0.298452,0.03835 0.425233,-0.0043 0.179291,-0.06037 0.245936,-0.221628 0.42523,-0.28199 0.126777,-0.04268 0.325003,0.06213 0.42523,-0.0043 0.100221,-0.06646 -0.10022,-0.211191 0,-0.277657 0.08692,-0.05765 1.107093,0.04376 1.275694,-0.013 1.410313,-0.935242 -0.400912,0.134974 0.850462,-0.286322 0.179293,-0.06036 0.245938,-0.221628 0.425231,-0.281989 0.340186,-0.114529 0.935509,0.101531 1.275694,-0.013 0.179291,-0.06037 0.245936,-0.221628 0.42523,-0.28199 0.126778,-0.04268 0.290761,0.02631 0.425231,-0.0043 0.300684,-0.0685 0.549778,-0.217813 0.850463,-0.286322 0.268939,-0.06127 0.650005,0.124267 0.850461,-0.0087 0.10022,-0.06646 -0.100221,-0.211192 0,-0.277657 0.200455,-0.132932 0.596903,0.0767 0.850463,-0.0087 0.179292,-0.06036 0.283487,-0.187994 0.425231,-0.28199 0.14174,-0.09399 0.335584,-0.164006 0.42523,-0.28199 0.06338,-0.08343 -0.06338,-0.19423 0,-0.277657 0.08966,-0.117985 0.335584,-0.164006 0.425232,-0.28199 0.06338,-0.08343 -0.100221,-0.211192 0,-0.277658 0.10022,-0.06646 0.283486,-0.0029 0.42523,-0.0043 0.14174,-0.0014 0.298453,-0.04443 0.425232,-0.0043 0.179293,0.05671 0.245937,0.216617 0.42523,0.273326 0.126777,0.0401 0.298451,-0.04443 0.425232,-0.0043 0.179292,0.0567 0.245937,0.216616 0.42523,0.273324 0.425231,0.134497 0.850461,-0.286322 1.275694,-0.013 1.21698,0.782236 -1.060992,0.358563 0.425231,0.828639 0.340184,0.107597 0.935507,-0.120594 1.275693,-0.013 1.410313,0.906504 -0.400912,-0.126804 0.850461,0.268992 0.179295,0.0567 0.245939,0.216616 0.425232,0.273325 0.126778,0.0401 0.325003,-0.06875 0.42523,-0.0043 0.100221,0.06443 -0.100232,0.213234 0,0.277658 0.200457,0.128847 0.650006,-0.137511 0.850463,-0.0087 0,0.740419 -0.141741,-0.09111 0.425231,0.273325 0.100221,0.06442 -0.100233,0.213234 0,0.277657 0.200456,0.128847 0.650006,-0.137512 0.850461,-0.0087 0.10022,0.06443 -0.10022,0.213234 0,0.277657 0.10022,0.06442 0.325004,-0.06875 0.425231,-0.0043 0.10022,0.06442 -0.100221,0.213234 0,0.277658 0.10022,0.06442 0.298452,-0.04443 0.425232,-0.0043 0.179292,0.0567 0.283488,0.182217 0.425231,0.273325 0.14174,0.09111 0.335584,0.157168 0.42523,0.273324 0.06338,0.08213 -0.06338,0.195522 0,0.277657 0.179295,0.232315 0.67117,0.314336 0.850464,0.54665 0.06338,0.08214 -0.0634,0.195522 0,0.277657 0.08963,0.116158 0.283486,0.182217 0.42523,0.273326 0.14174,0.09111 0.245938,0.216616 0.425231,0.273324 0.126776,0.0401 0.283487,-0.0029 0.425231,-0.0043 0.14174,0.09111 0.245938,0.216616 0.425231,0.273325 0.230682,0.07296 1.584572,-0.09211 1.700924,-0.01733 0.10022,0.06442 -0.10022,0.213234 0,0.277657 0.212616,0.136663 1.063077,-0.149659 1.275694,-0.013 0.10022,0.06443 -0.100221,0.213235 0,0.277658 0.10022,0.06442 0.283488,-0.0029 0.42523,-0.0043 0.566976,-0.0058 1.133949,-0.01155 1.700924,-0.01733 0.141741,-0.0014 0.283488,-0.0029 0.425231,-0.0043 0.14174,-0.0014 0.298451,0.03835 0.425232,-0.0043 0.179293,-0.06037 0.245937,-0.221627 0.42523,-0.28199 0.25356,-0.08536 0.650005,0.124266 0.85046,-0.0087 0.10023,-0.06646 -0.10022,-0.211191 0,-0.277657 0.0869,-0.05765 1.10709,0.04376 1.27569,-0.013 0.1793,-0.06036 0.24594,-0.221628 0.42523,-0.28199 0.1686,-0.05677 1.18876,0.04465 1.2757,-0.013 0.10023,-0.06647 -0.10022,-0.211192 0,-0.277657 0.21261,-0.140995 1.06307,0.127997 1.27569,-0.013 0.10022,-0.06646 -0.12678,-0.234976 0,-0.277658 0.25356,-0.08536 0.58152,0.05261 0.85046,-0.0087 0.19017,-0.04333 0.24594,-0.221628 0.42523,-0.28199 0.25356,-0.08536 0.59691,0.0767 0.85047,-0.0087 0.17929,-0.06036 0.23506,-0.238662 0.42523,-0.281989 0.21906,-0.04991 2.5268,-0.02574 2.97662,-0.03033 0.9922,-0.01011 1.9844,-0.02022 2.97661,-0.03033 0.19151,-0.002 1.14628,-0.05393 1.27569,-0.013 0.1793,0.0567 0.24594,0.216617 0.42524,0.273325 0.12677,0.0401 0.325,-0.06875 0.42523,-0.0043 0.10022,0.06442 -0.10024,0.213235 0,0.277657 0.20045,0.128847 0.5969,-0.08886 0.85046,-0.0087 0.17929,0.05671 0.24594,0.216616 0.42523,0.273325 0.12678,0.0401 0.325,-0.06875 0.42523,-0.0043 0.10022,0.06442 -0.10022,0.213233 0,0.277657 0.10022,0.06442 0.325,-0.06876 0.42523,-0.0043 0.10022,0.06442 -0.10022,0.213234 0,0.277657 0.10022,0.06442 0.325,-0.06875 0.42523,-0.0043 0.1415,0.09095 -0.14149,0.464368 0,0.555315 0.10023,0.06442 0.32501,-0.06876 0.42523,-0.0043 0.20046,0.128847 -0.20045,0.426468 0,0.555314 0.10022,0.06443 0.32501,-0.06875 0.42524,-0.0043 0.10022,0.06443 -0.0634,0.195522 0,0.277657 0.0896,0.116158 0.33558,0.157168 0.42523,0.273325 0.0634,0.08214 -0.10022,0.213235 0,0.277657 0.10023,0.06442 0.29845,-0.04443 0.42523,-0.0043 0.17929,0.05671 0.24593,0.216616 0.42523,0.273325 0.25356,0.0802 0.65,-0.137512 0.85046,-0.0087 0.10023,0.06443 -0.10022,0.213234 0,0.277657 0.14194,0.09123 0.70852,-0.0999 0.85046,-0.0087 0.10015,0.06442 -0.10016,0.213233 0,0.277658 0.20045,0.128847 0.85047,-0.19377 0.85047,-0.0087 0,0.09255 -0.56697,0.0058 -0.42524,0.0043 0.2835,-0.0029 0.56698,-0.0058 0.85047,-0.0087 0.14181,-0.0014 0.42522,-0.09688 0.42522,-0.0043 0,0.09255 -0.56698,0.0058 -0.42522,0.0043 0.28348,-0.0029 0.56697,-0.0058 0.85045,-0.0087"
   id="path5260"
   inkscape:connector-curvature="0" /></svg>